# Blender v2.93.6 OBJ File: ''
# www.blender.org
o DirtBlock_Cube.002
v -0.500000 -0.500000 0.500000
v -0.500000 0.500000 0.500000
v -0.500000 -0.500000 -0.500000
v -0.500000 0.500000 -0.500000
v 0.500000 -0.500000 0.500000
v 0.500000 0.500000 0.500000
v 0.500000 -0.500000 -0.500000
v 0.500000 0.500000 -0.500000
vt 0.937500 0.550781
vt 0.937500 0.550781
vt 0.937500 0.550781
vt 0.937500 0.550781
vt 0.937500 0.550781
vt 0.937500 0.550781
vt 0.937500 0.550781
vt 0.937500 0.550781
vn -1.0000 0.0000 0.0000
vn 0.0000 0.0000 -1.0000
vn 1.0000 0.0000 0.0000
vn 0.0000 -1.0000 0.0000
vn 0.0000 1.0000 0.0000
vn 0.0000 0.0000 1.0000
s off
f 2/1/1 3/2/1 1/3/1
f 4/4/2 7/5/2 3/2/2
f 8/6/3 5/7/3 7/5/3
f 7/5/4 1/3/4 3/2/4
f 4/4/5 6/8/5 8/6/5
f 6/8/6 1/3/6 5/7/6
f 2/1/1 4/4/1 3/2/1
f 4/4/2 8/6/2 7/5/2
f 8/6/3 6/8/3 5/7/3
f 7/5/4 5/7/4 1/3/4
f 4/4/5 2/1/5 6/8/5
f 6/8/6 2/1/6 1/3/6
