# Blender v2.93.6 OBJ File: ''
# www.blender.org
o Cube_Cube.001
v -0.500000 -0.500000 0.500000
v -0.500000 0.500000 0.500000
v -0.500000 -0.500000 -0.500000
v -0.500000 0.500000 -0.500000
v 0.500000 -0.500000 0.500000
v 0.500000 0.500000 0.500000
v 0.500000 -0.500000 -0.500000
v 0.500000 0.500000 -0.500000
v -0.500000 0.246774 0.500000
v -0.500000 0.246774 -0.500000
v 0.500000 0.246774 -0.500000
v 0.500000 0.246774 0.500000
vt 0.935547 0.192648
vt 0.935547 0.192648
vt 0.935547 0.192648
vt 0.935547 0.192648
vt 0.935547 0.192648
vt 0.935547 0.192648
vt 0.935547 0.192648
vt 0.935547 0.192648
vt 0.664690 0.335310
vt 0.335310 0.664690
vt 0.335310 0.335310
vt 0.805338 0.815755
vt 0.805338 0.815755
vt 0.805338 0.815755
vt 0.941406 0.563114
vt 0.941406 0.563114
vt 0.941406 0.563114
vt 0.941406 0.563114
vt 0.941406 0.563114
vt 0.941406 0.563114
vt 0.941406 0.563114
vt 0.941406 0.563114
vt 0.664690 0.664690
vt 0.805338 0.815755
vn -1.0000 0.0000 0.0000
vn 0.0000 0.0000 -1.0000
vn 1.0000 0.0000 0.0000
vn 0.0000 0.0000 1.0000
vn 0.0000 -1.0000 0.0000
vn 0.0000 1.0000 0.0000
s off
f 2/1/1 10/2/1 9/3/1
f 4/4/2 11/5/2 10/2/2
f 8/6/3 12/7/3 11/5/3
f 6/8/4 9/3/4 12/7/4
f 7/9/5 1/10/5 3/11/5
f 4/12/6 6/13/6 8/14/6
f 12/15/4 1/16/4 5/17/4
f 11/18/3 5/17/3 7/19/3
f 10/20/2 7/19/2 3/21/2
f 9/22/1 3/21/1 1/16/1
f 2/1/1 4/4/1 10/2/1
f 4/4/2 8/6/2 11/5/2
f 8/6/3 6/8/3 12/7/3
f 6/8/4 2/1/4 9/3/4
f 7/9/5 5/23/5 1/10/5
f 4/12/6 2/24/6 6/13/6
f 12/15/4 9/22/4 1/16/4
f 11/18/3 12/15/3 5/17/3
f 10/20/2 11/18/2 7/19/2
f 9/22/1 10/20/1 3/21/1
